# xmcd
#
# Track frame offsets:
#	150
#	19548
#	40069
#	52841
#	71566
#	91950
#	115906
#	136868
#	154392
#	167890
#	184227
#	204641
#
# Disc length: 2953 seconds
#
# Revision: 1
# Processed by: cddbd v1.5.1PL0 Copyright (c) Steve Scherf et al.
# Submitted via: audiograbber 1.82.01
#
DISCID=9e0b870c
DTITLE=Kitrina Podilata - Kitrina Podilata
DYEAR=1900
DGENRE=
TTITLE0=Paei tosos kairos
TTITLE1=Tora zo
TTITLE2=Pote de 8a m'afisieis
TTITLE3=Ores
TTITLE4=Hmouna edo kai edo eimai akoma
TTITLE5=Pali edo
TTITLE6=Mia gemati kardia
TTITLE7=To mparaki
TTITLE8=Leipeis esy
TTITLE9=Peiraias
TTITLE10=Pote ksana
TTITLE11=Foties
EXTD=
EXTT0=
EXTT1=
EXTT2=
EXTT3=
EXTT4=
EXTT5=
EXTT6=
EXTT7=
EXTT8=
EXTT9=
EXTT10=
EXTT11=
PLAYORDER=
